<?xml version="1.0" encoding="UTF-8"?>
<svg width="28px" height="36px" viewBox="0 0 28 36" version="1.1" xmlns="http://www.w3.org/2000/svg" xmlns:xlink="http://www.w3.org/1999/xlink">
    <!-- Generator: Sketch 48.1 (47250) - http://www.bohemiancoding.com/sketch -->
    <title>shopping-basket copy 2</title>
    <desc>Created with Sketch.</desc>
    <defs></defs>
    <g id="Vid" stroke="none" stroke-width="1" fill="none" fill-rule="evenodd" transform="translate(-137.000000, -665.000000)">
        <g id="shopping-basket-copy-2" transform="translate(137.082031, 665.963867)" fill="#FBF8C2" fill-rule="nonzero">
            <path d="M21.2041262,34.9162001 L6.06936298,34.9162001 C4.6445224,34.9162001 3.48542772,33.5263112 3.48542772,31.8194205 L1.34209749,19.7492117 C0.532797876,19.2680432 0,18.2845174 0,17.1888756 C0,15.5859938 1.08726107,14.2839 2.42259776,14.2839 L24.5567194,14.2839 C25.8920561,14.2839 26.9807001,15.5859938 26.9807001,17.1888756 C26.9807001,18.1268916 26.6024789,18.9852196 25.9721102,19.5265457 L23.7703912,32.0144489 C23.7880615,33.5262191 22.6289668,34.9162001 21.2041262,34.9162001 Z M2.42259776,16.1891358 C1.96301637,16.1891358 1.58886703,16.6377842 1.58886703,17.1888756 C1.58886703,17.6228761 1.85054109,18.0081426 2.22599649,18.122009 C2.51878563,18.2114623 2.74388986,18.4942859 2.8048908,18.8486905 L5.05670129,31.6227337 C5.07429476,32.4761791 5.52035452,33.0093982 6.06805691,33.0093982 L21.2028202,33.0093982 C21.7519055,33.0093982 22.1965055,32.4761791 22.1965055,31.8178543 L24.4862687,18.7284674 C24.536437,18.4407613 24.6937026,18.1969066 24.9119692,18.0684844 C25.2061413,17.8977769 25.3891441,17.5580202 25.3891441,17.1874016 C25.3891441,16.6363102 25.0149947,16.1876618 24.5554134,16.1876618 L2.42259776,16.1876618 L2.42259776,16.1891358 Z" id="Shape"></path>
            <path d="M7.93377595,29.459042 C7.93377595,29.8415348 7.61942096,30.1549001 7.23572014,30.1549001 L7.04473176,30.1549001 C6.66103094,30.1549001 6.34840002,29.8415348 6.34840002,29.459042 L6.34840002,21.3264395 C6.34840002,20.9439467 6.66275501,20.6323001 7.04473176,20.6323001 L7.23744421,20.6323001 C7.62114503,20.6323001 7.93550002,20.9456653 7.93550002,21.3264395 L7.93550002,29.459042 L7.93377595,29.459042 Z" id="Shape"></path>
            <path d="M12.1677667,29.459042 C12.1677667,29.8415348 11.8537339,30.1549001 11.4721486,30.1549001 L11.2780071,30.1549001 C10.8946995,30.1549001 10.5806667,29.8415348 10.5806667,29.459042 L10.5806667,21.3264395 C10.5806667,20.9439467 10.8946995,20.6323001 11.2780071,20.6323001 L11.470522,20.6323001 C11.8538296,20.6323001 12.1661401,20.9456653 12.1661401,21.3264395 L12.1661401,29.459042 L12.1677667,29.459042 Z" id="Shape"></path>
            <path d="M16.4000334,29.459042 C16.4000334,29.8415348 16.0856784,30.1549001 15.7037016,30.1549001 L15.5109892,30.1549001 C15.1272884,30.1549001 14.8129334,29.8415348 14.8129334,29.459042 L14.8129334,21.3264395 C14.8129334,20.9439467 15.1272884,20.6323001 15.5109892,20.6323001 L15.7037016,20.6323001 C16.0874025,20.6323001 16.4000334,20.9456653 16.4000334,21.3264395 L16.4000334,29.459042 Z" id="Shape"></path>
            <path d="M20.6323001,29.459042 C20.6323001,29.8415348 20.3179451,30.1549001 19.9342442,30.1549001 L19.7415318,30.1549001 C19.357831,30.1549001 19.0452001,29.8415348 19.0452001,29.459042 L19.0452001,21.3264395 C19.0452001,20.9439467 19.359555,20.6323001 19.7415318,20.6323001 L19.9342442,20.6323001 C20.3179451,20.6323001 20.6323001,20.9456653 20.6323001,21.3264395 L20.6323001,29.459042 Z" id="Shape"></path>
            <path d="M14.2839786,0 C9.02504877,0 4.76130001,4.97428191 4.76130001,11.1097 L6.48426958,11.1097 C6.48426958,6.08363897 9.97592625,2.01013116 14.2839,2.01013116 C18.5918738,2.01013116 22.0835305,6.08373061 22.0835305,11.1097 L23.8065001,11.1097 C23.8051647,4.97428191 19.5428299,0 14.2839786,0 Z" id="Shape"></path>
        </g>
    </g>
</svg>