<svg version="1.1" id="_x2014_лой_1" xmlns="http://www.w3.org/2000/svg" xmlns:xlink="http://www.w3.org/1999/xlink" x="0px"
	 y="0px" width="34" height="30" viewBox="0 0 154.1 140" enable-background="new 0 0 154.1 140" xml:space="preserve">
<g>
	<circle fill="#3D5768" cx="70" cy="70" r="70"/>
	
		<linearGradient id="SVGID_1_" gradientUnits="userSpaceOnUse" x1="8" y1="-62.4" x2="132" y2="-62.4" gradientTransform="matrix(1 0 0 -1 0 7.6)">
		<stop  offset="0" style="stop-color:#ECF4F5"/>
		<stop  offset="1" style="stop-color:#FFFFFF"/>
	</linearGradient>
	<circle fill="url(#SVGID_1_)" cx="70" cy="70" r="62"/>
</g>
<g>
	
		<path fill="none" stroke="#C05042" stroke-width="3.8401" stroke-linecap="round" stroke-linejoin="round" stroke-miterlimit="22.9256" d="
		M3,53.2c2.6-2,33.3-4,39.9,4.5c5.8,7.6-10.8,22-13.4,24s-12.6,14-18.4,6.4C12.9,83.8-1.2,56.4,3,53.2"/>
	
		<linearGradient id="SVGID_2_" gradientUnits="userSpaceOnUse" x1="32.155" y1="-37.4378" x2="3.7941" y2="-82.8248" gradientTransform="matrix(1 0 0 -1 0 7.6)">
		<stop  offset="0" style="stop-color:#F3763F"/>
		<stop  offset="0.77" style="stop-color:#F0753F"/>
		<stop  offset="1" style="stop-color:#B0542E"/>
	</linearGradient>
	<path fill="url(#SVGID_2_)" d="M3,53.2c2.6-2,33.3-4,39.9,4.5c5.8,7.6-10.8,22-13.4,24s-12.6,14-18.4,6.4
		C12.9,83.8-1.2,56.4,3,53.2z"/>
	
		<linearGradient id="SVGID_3_" gradientUnits="userSpaceOnUse" x1="29.5544" y1="-41.5422" x2="2.6664" y2="-84.5721" gradientTransform="matrix(1 0 0 -1 0 7.6)">
		<stop  offset="0" style="stop-color:#F5BE94"/>
		<stop  offset="1" style="stop-color:#F1AF85"/>
	</linearGradient>
	<path fill="url(#SVGID_3_)" d="M4.1,55.4c2.6-2,23.3,0.2,29.9,8.7c5.8,7.6-1.9,15.7-4.5,17.7S17.9,93.7,12,86.1
		C13.9,81.7-0.1,58.6,4.1,55.4z"/>
</g>
<g>
	
		<path fill="none" stroke="#C05042" stroke-width="3.8401" stroke-linecap="round" stroke-linejoin="round" stroke-miterlimit="22.9256" d="
		M55.3,24.5c3.4,0,30.1,17.8,30.1,29.1c0,10-22.9,11.3-26.3,11.3s-19.9,0.8-19.9-9.2C43.5,53.3,49.8,24.5,55.3,24.5"/>
	
		<linearGradient id="SVGID_4_" gradientUnits="userSpaceOnUse" x1="78.1445" y1="-18.6693" x2="48.3438" y2="-66.3604" gradientTransform="matrix(1 0 0 -1 0 7.6)">
		<stop  offset="0" style="stop-color:#F3763F"/>
		<stop  offset="0.77" style="stop-color:#F0753F"/>
		<stop  offset="1" style="stop-color:#B0542E"/>
	</linearGradient>
	<path fill="url(#SVGID_4_)" d="M55.3,24.5c3.4,0,30.1,17.8,30.1,29.1c0,10-22.9,11.3-26.3,11.3s-19.9,0.8-19.9-9.2
		C43.5,53.3,49.8,24.5,55.3,24.5z"/>
	
		<linearGradient id="SVGID_5_" gradientUnits="userSpaceOnUse" x1="72.8266" y1="-22.9447" x2="48.6841" y2="-61.5808" gradientTransform="matrix(1 0 0 -1 0 7.6)">
		<stop  offset="0" style="stop-color:#FBD1B9"/>
		<stop  offset="1" style="stop-color:#F7B595"/>
	</linearGradient>
	<path fill="url(#SVGID_5_)" d="M53.9,28.6c3.4,0,25.3,12.7,25.3,23.9c0,10-16.7,12.4-20.1,12.4s-17.1-1-17.1-11
		C46.3,51.5,48.4,28.6,53.9,28.6z"/>
</g>
<g>
	
		<path fill="none" stroke="#C05042" stroke-width="3.8401" stroke-linecap="round" stroke-linejoin="round" stroke-miterlimit="22.9256" d="
		M39,54c14.7-8.9,50.7-2.6,59.7,8.6c11,13.7-2.4,30.7-25.8,45.4c-23.4,14.7-50,14.6-59.4-0.4C4.2,92.7,15.3,68.2,39,54"/>
	
		<linearGradient id="SVGID_6_" gradientUnits="userSpaceOnUse" x1="84.3324" y1="-29.9189" x2="27.3247" y2="-121.1503" gradientTransform="matrix(1 0 0 -1 0 7.6)">
		<stop  offset="0" style="stop-color:#F3763F"/>
		<stop  offset="0.77" style="stop-color:#F0753F"/>
		<stop  offset="1" style="stop-color:#B0542E"/>
	</linearGradient>
	<path fill="url(#SVGID_6_)" d="M39,54c14.7-8.9,50.7-2.6,59.7,8.6c11,13.7-2.4,30.7-25.8,45.4c-23.4,14.7-50,14.6-59.4-0.4
		C4.2,92.7,15.3,68.2,39,54z"/>
	<path fill="#C76042" d="M96.2,60.1c-7.2,3.1-12.1,4.6-12.5,3.8c-0.4-0.7,2.8-3.2,8.3-6.6C93.5,58.2,95,59.1,96.2,60.1z"/>
	<path fill="#C76042" d="M91.2,56.9c-13.9,6.9-25.2,11.3-25.8,10c-0.6-1.2,7.5-6.5,19.1-12.8C87,54.9,89.2,55.9,91.2,56.9z"/>
	<path fill="#C76042" d="M11.8,85.7c3.6-0.8,5.8-1.6,5.7-2.2c0-0.5-1.7-0.9-4.5-1.1C12.6,83.5,12.2,84.6,11.8,85.7z"/>
	<path fill="#C76042" d="M13.5,81.3c5.4-0.7,8.8-1.5,8.7-2.2c0-0.7-2.6-1.2-6.8-1.6C14.7,78.7,14.1,80,13.5,81.3z"/>
	<path fill="#FFFFFF" d="M65.7,72.2c-0.5,4.8-6.4,8.7-13.7,8.7c-4.4,0-8.3-1.4-10.8-3.5c4.4-1.4,10.1-2.8,16.2-3.9
		C60.3,72.9,63.1,72.5,65.7,72.2z"/>
	
		<radialGradient id="SVGID_7_" cx="57.3016" cy="-68.2056" r="6.4864" gradientTransform="matrix(1 0 0 -1 0 7.6)" gradientUnits="userSpaceOnUse">
		<stop  offset="0" style="stop-color:#D7E149"/>
		<stop  offset="0.43" style="stop-color:#CCD44D"/>
		<stop  offset="0.5" style="stop-color:#C9D24E"/>
		<stop  offset="1" style="stop-color:#000000"/>
	</radialGradient>
	<path fill="url(#SVGID_7_)" d="M62.8,72.5c0,0.3,0.1,0.6,0.1,0.8c0,3.1-2.5,5.7-5.7,5.7c-2.7,0-5-1.9-5.6-4.5
		c1.9-0.4,3.8-0.8,5.8-1.1C59.3,73.1,61.1,72.8,62.8,72.5z"/>
	<path fill="#1D2013" d="M61.1,72.8c0.1,0.2,0.1,0.5,0.1,0.8c0,1.9-1.5,3.4-3.4,3.4c-1.7,0-3.1-1.3-3.3-3c1-0.2,2-0.4,3-0.6
		C58.7,73.2,59.9,73,61.1,72.8z"/>
	
		<linearGradient id="SVGID_8_" gradientUnits="userSpaceOnUse" x1="24.7459" y1="-76.8625" x2="32.4393" y2="-64.0585" gradientTransform="matrix(1 0 0 -1 0 7.6)">
		<stop  offset="0" style="stop-color:#DF9A46"/>
		<stop  offset="1" style="stop-color:#EBAB45"/>
	</linearGradient>
	<path fill="url(#SVGID_8_)" d="M26.2,68.3c5.2-2.7,9.5,4,11.2,10.9c-3.5-0.1-7.8,1.1-11.1,2.8c-1.5,0.8-2.7,1.9-3.5,3.2
		C21.9,80.7,20.2,71.4,26.2,68.3z"/>
	
		<linearGradient id="SVGID_9_" gradientUnits="userSpaceOnUse" x1="47.0741" y1="-70.4453" x2="56.8539" y2="-54.1689" gradientTransform="matrix(1 0 0 -1 0 7.6)">
		<stop  offset="0" style="stop-color:#DF9A46"/>
		<stop  offset="1" style="stop-color:#EBAB45"/>
	</linearGradient>
	<path fill="url(#SVGID_9_)" d="M49.5,54.5c6.7-1.3,14,6.4,16.2,17.6c-3.8-0.2-8.8,1.2-12.7,2c-3.8,0.9-8.7,1.6-11.8,2.9
		C39,65.9,42.7,55.8,49.5,54.5z"/>
	<path fill="#FFFFFF" d="M58.3,73.8c0.5-0.1,4.1-0.7,4.2-0.2c0.1,0.4-3.4,1.7-3.9,1.8c-0.5,0.1-0.9-0.1-1.1-0.6
		C57.6,74.4,57.9,73.9,58.3,73.8z"/>
	<path fill="#FFFFFF" d="M60.1,79.9c7.5-2.8,5-14.7,19.8-14.7c8.6,0,21.1,27.5-14.7,28.3c-7.3,0.2-23.6,6.4-23.6-4
		C41.7,81.3,53.2,82.5,60.1,79.9z"/>
	<path fill="#4A2928" d="M41.9,91.8c-0.6,3.6,4.2,5.5,21.5,1.9c6.9-1.4,15.5-4.5,15.5-19.2c0-0.4-0.1-0.7-0.2-1
		c0,14.7-8.6,18-15.5,19.4C47.8,95.9,42.4,94.7,41.9,91.8z"/>
	<path fill="#FFFFFF" d="M25.4,90.6c-5.6,0.6-1.8-9.5-11.2-4.8c-5.4,2.7-6.7,27.2,13.1,17.4c4.6-2.3,15.3-5.1,12-11.7
		C36.7,86.2,30.5,90,25.4,90.6z"/>
	<path fill="#FFFFFF" d="M26.2,82.2c4.1-2.1,10.8-3.3,11.6-2.5c0.6,0.6-1.1,3.4-4.3,5.7c-3.8,2.6-8.2,6.5-9.9,2.1
		C23,86.1,22.2,84.4,26.2,82.2z"/>
	
		<radialGradient id="SVGID_10_" cx="32.6345" cy="-74.1766" r="5.3006" gradientTransform="matrix(1 0 0 -1 0 7.6)" gradientUnits="userSpaceOnUse">
		<stop  offset="0" style="stop-color:#D7E149"/>
		<stop  offset="0.43" style="stop-color:#CCD44D"/>
		<stop  offset="0.5" style="stop-color:#C9D24E"/>
		<stop  offset="1" style="stop-color:#000000"/>
	</radialGradient>
	<path fill="url(#SVGID_10_)" d="M37.4,79.5c-0.1,2.7-2.3,4.8-5,4.8c-2,0-3.7-1.2-4.5-2.9C31.4,80.1,35.9,79.2,37.4,79.5z"/>
	<path fill="#1D2013" d="M35.8,79.5c0,0.1,0,0.2,0,0.3c0,1.5-1.2,2.7-2.7,2.7c-1.2,0-2.2-0.8-2.5-1.9C32.5,80,34.4,79.6,35.8,79.5z"
		/>
	<path fill="#4A2928" d="M40.5,89c1.1,3.4,0,7.5-5,10.6c-6,3.7-13.8,2.9-17.3-1.5c-1.3-1.6-1.3-3.6-0.4-5.6
		c-0.6,1.8-0.4,3.5,0.7,4.7c3.7,4.2,10.7,5.1,16.7,1.4C39.5,96,41,92.3,40.5,89z"/>
	<path fill="#D14D43" d="M38.9,81.7c3-1.6,7.3,0.5,7.4,1.2c-1.6,1-4.8,2.5-4.8,4.1c0,3.5,0.4,5.2-0.4,5.7c-1.3,0.7-1.9-2.8-3.5-3.9
		c-1.4-1-1.2,0.1-4.4-0.4C33.2,85,36.8,82.8,38.9,81.7z"/>
	<path fill="#FFFFFF" d="M34.2,80.2c0.3-0.1,1.5-0.2,1.5,0.1c0.1,0.3-1,0.9-1.3,1s-0.6-0.1-0.7-0.4C33.7,80.6,33.9,80.3,34.2,80.2z"
		/>
</g>
<g>
	<path fill="#9B999C" d="M89.8,106c0,0-11.1,21.4-19.3,27.5c-3,2.2-6.8-4.5-11.3-9.1c-0.6-0.6-1.8-3.4,0.7-0.9
		c4,4.5,7.5,10.1,10.3,8c8.2-6,19.3-27.5,19.3-27.5C90.9,104.2,90.4,99,89.8,106z"/>
	<path fill="#4370B7" d="M30.2,116.4c-5.8,2.1-2,6.6-1.1,9.2s-0.3,12.4,5.5,10.3s10.6-9.7,9.6-12.3C43.3,120.9,36,114.2,30.2,116.4z
		"/>
	<path fill="#587EC0" d="M30.3,124.7c-4.6-8,2.9-6.2,5.5-7.1c-3.1-1.8-12.4-0.9-6.5,7C31.2,127.1,31.1,126,30.3,124.7z"/>
	<path fill="#4063AD" d="M38.3,131.9c-7.2,5.9-6.6-1.9-8-4.2c-1.3,3.4,1.2,12.3,8,5.3C40.5,130.7,39.4,130.9,38.3,131.9z"/>
	<path fill="#4370B7" d="M70,107.9c6.7,0,4.4,5.9,4.4,8.9c0,2.9,4.9,12.4-1.8,12.4c-6.7,0-14.2-5.9-14.2-8.9
		C58.5,117.4,63.3,107.9,70,107.9z"/>
	<path fill="#4370B7" d="M50.8,118.7c4.8-0.8,8.4-2.3,9.6,2c0.8,2.8-3,5.9-7.8,6.7c-4.8,0.8-9.1-0.8-9.6-3.7
		C42.5,120.8,46,119.5,50.8,118.7z"/>
	<path fill="#587EC0" d="M47.9,120.4c-3.3,0.7-3.6,3.2-2.3,4.9c-2.9,0-3.4-5.2,3.5-6.1C53.9,118.6,49.6,120.1,47.9,120.4z"/>
	<path fill="#4063AD" d="M53.3,125.1c4.5-1,4.8-4.4,3-6.7c3.9,0,4.8,8.3-4.6,8.3C45.5,126.7,50.9,125.6,53.3,125.1z"/>
	<path fill="#587EC0" d="M73.2,115.3c-1.2-10.1-6.5-3.5-9.4-2.7c1.5-3.6,10.1-8.8,10.2,2C74.1,117.9,73.4,116.9,73.2,115.3z"/>
	<path fill="#4063AD" d="M67.3,126.5c9.7,3.1,5.9-4.5,6.4-7.4c2.7,2.9,3.8,12.8-6,8.5C64.6,126.2,65.8,126,67.3,126.5z"/>
</g>
<g>
	
		<path fill="none" stroke="#C05042" stroke-width="3.8401" stroke-linecap="round" stroke-linejoin="round" stroke-miterlimit="22.9256" d="
		M113.2,50c6.9,0,12.4,6.1,12.4,13.7c0,2.6-0.6,7.5-1.8,12.8c1.6-5.4,3.4-10.1,4.7-12.5c3.6-6.7,11.4-9.4,17.5-6.1
		c6,3.3,8,11.3,4.3,18c-1.5,2.8-5.5,8.2-10.2,13.2c5.3,3.6,8.6,8.7,8.6,14.5c0,10.7-11.4,19.4-25.5,19.4c-11.6,0-21.4-5.9-24.5-14
		c-6-0.9-10.7-6.7-10.7-13.6c0-7.6,5.6-13.7,12.4-13.7c1.2,0,2.4,0.2,3.5,0.6c-2-7.3-3.2-15-3.2-18.5C100.8,56.2,106.4,50,113.2,50"
		/>
	
		<linearGradient id="SVGID_11_" gradientUnits="userSpaceOnUse" x1="146.1037" y1="-41.9515" x2="101.5347" y2="-113.2766" gradientTransform="matrix(1 0 0 -1 0 7.6)">
		<stop  offset="0" style="stop-color:#F3763F"/>
		<stop  offset="0.77" style="stop-color:#F0753F"/>
		<stop  offset="1" style="stop-color:#B0542E"/>
	</linearGradient>
	<path fill="url(#SVGID_11_)" d="M113.2,50c6.9,0,12.4,6.1,12.4,13.7c0,2.6-0.6,7.5-1.8,12.8c1.6-5.4,3.4-10.1,4.7-12.5
		c3.6-6.7,11.4-9.4,17.5-6.1c6,3.3,8,11.3,4.3,18c-1.5,2.8-5.5,8.2-10.2,13.2c5.3,3.6,8.6,8.7,8.6,14.5c0,10.7-11.4,19.4-25.5,19.4
		c-11.6,0-21.4-5.9-24.5-14c-6-0.9-10.7-6.7-10.7-13.6c0-7.6,5.6-13.7,12.4-13.7c1.2,0,2.4,0.2,3.5,0.6c-2-7.3-3.2-15-3.2-18.5
		C100.8,56.2,106.4,50,113.2,50z"/>
	<path fill="#8A4738" d="M120,91.3c8.6,2,14,3.1,14,8.4s-7.8,11.7-16,9c-9.1-3-10.9-7.3-10.9-12.6C107.1,90.8,111.4,89.3,120,91.3z"
		/>
	<ellipse fill="#8A4738" cx="98.8" cy="95.1" rx="4.4" ry="5.6"/>
	
		<ellipse transform="matrix(0.4158 -0.9094 0.9094 0.4158 13.5889 168.6564)" fill="#8A4738" cx="138.1" cy="73.8" rx="6.9" ry="5.5"/>
	<ellipse fill="#8A4738" cx="115.4" cy="69.1" rx="5.5" ry="6.9"/>
	
		<path fill="none" stroke="#C05042" stroke-width="3.8401" stroke-linecap="round" stroke-linejoin="round" stroke-miterlimit="22.9256" d="
		M127.7,96.5c11.3-11.9,13.4-6.5,17.6-2.4c4.1,4.1,5.9,8-2.9,17.1c-5.4,5.5-12.9,6.8-17,2.7C121.2,109.7,122.4,102.1,127.7,96.5"/>
	<path fill="#F3763F" d="M127.7,96.5c11.3-11.9,13.4-6.5,17.6-2.4c4.1,4.1,5.9,8-2.9,17.1c-5.4,5.5-12.9,6.8-17,2.7
		C121.2,109.7,122.4,102.1,127.7,96.5z"/>
</g>
</svg>
